<?xml version="1.0" encoding="UTF-8" standalone="no"?>
<svg
   xmlns:dc="http://purl.org/dc/elements/1.1/"
   xmlns:cc="http://creativecommons.org/ns#"
   xmlns:rdf="http://www.w3.org/1999/02/22-rdf-syntax-ns#"
   xmlns:svg="http://www.w3.org/2000/svg"
   xmlns="http://www.w3.org/2000/svg"
   viewBox="0 0 128 128"
   height="128"
   width="128"
   version="1.1"
   id="svg4190">
  <metadata
     id="metadata4196">
    <rdf:RDF>
      <cc:Work
         rdf:about="">
        <dc:format>image/svg+xml</dc:format>
        <dc:type
           rdf:resource="http://purl.org/dc/dcmitype/StillImage" />
        <dc:title></dc:title>
      </cc:Work>
    </rdf:RDF>
  </metadata>
  <defs
     id="defs4194" />
  <g
     id="g4200">
    <path
       id="path4216"
       d="m 0,64 0,-64 64,0 64,0 0,64 0,64 -64,0 -64,0 0,-64 z"
       style="fill:#ffffff" />
    <path
       id="path4214"
       d="M 48.512217,126.38587 C 37.345313,123.68634 28.309162,118.38038 18.964391,109.03561 5.7690911,95.840309 0.02956217,82.189107 0.02956217,64 0.02956217,45.810893 5.7690911,32.159691 18.964391,18.964391 32.159691,5.7690911 45.810893,0.02956217 64,0.02956217 c 18.189107,0 31.840309,5.73952893 45.03561,18.93482883 13.1953,13.1953 18.93483,26.846502 18.93483,45.035609 0,18.189107 -5.73953,31.840309 -18.93483,45.03561 -9.497224,9.49722 -18.447299,14.68432 -30.03561,17.40742 -8.052901,1.89232 -22.53585,1.86516 -30.487783,-0.0572 z"
       style="fill:#f9f9c6" />
    <path
       id="path4212"
       d="M 51.303157,127.01663 C 45.399219,125.75872 35.921363,121.79894 29.373618,117.85461 18.043392,111.02935 7.4835234,97.006531 2.3733443,82 c -2.65488753,-7.796332 -2.65488753,-28.203668 0,-36 C 9.6679843,24.578589 24.578589,9.6679843 46,2.3733443 c 7.796332,-2.65488753 28.203668,-2.65488753 36,0 21.42141,7.29464 36.33202,22.2052447 43.62666,43.6266557 2.65488,7.796332 2.65488,28.203668 0,36 -7.17108,21.05856 -21.64729,35.8029 -42.351361,43.13579 -6.540976,2.31666 -24.866818,3.39472 -31.972142,1.88084 z M 42.881193,76.454672 C 41.395797,69.216247 41.018593,64.794616 41.498792,60.25 l 0.660396,-6.25 -4.722487,0 -4.722487,0 0.539574,7.872216 c 0.324677,4.736937 1.368877,9.746994 2.621829,12.579501 2.003399,4.529015 8.002661,13.003338 8.70693,12.299069 0.187793,-0.187793 -0.577816,-4.821044 -1.701354,-10.296114 z"
       style="fill:#f4d9ad" />
    <path
       id="path4210"
       d="M 50,126.44497 C 26.634215,121.42659 6.4225298,101.02974 1.4993521,77.5 -8.0085042,32.058333 32.058333,-8.0085042 77.5,1.4993521 101.2732,6.4734683 121.52653,26.726803 126.50065,50.5 136.04271,96.105161 95.612769,136.24143 50,126.44497 Z M 44.392611,82.75 c -2.20145,-8.102849 -3.294525,-18.754711 -2.462837,-24 l 0.753155,-4.75 -4.96995,0 -4.96995,0 0.449786,7.769793 C 33.70547,70.6256 36.690678,78.300235 41.954705,84.295631 43.743569,86.333034 45.344837,88 45.51308,88 c 0.168242,0 -0.335969,-2.3625 -1.120469,-5.25 z"
       style="fill:#fda243" />
    <path
       id="path4208"
       d="M 50.5,126.3514 C 26.068579,121.16653 6.7011969,101.52689 1.5826427,76.74638 c -1.99702689,-9.668226 -1.99702689,-15.824534 0,-25.49276 C 6.7715684,26.132423 26.207156,6.6751346 51.207842,1.5730112 c 9.724635,-1.98459713 15.859681,-1.98459713 25.584316,0 25.000682,5.1021234 44.436272,24.5594118 49.625202,49.6806088 1.99446,9.65582 1.99678,15.801391 0.01,25.538538 C 119.34696,111.48468 85.266687,133.72964 50.5,126.3514 Z m 16.442223,-5.97801 c 9.468349,-0.56291 12.765625,-1.43424 22.796452,-6.02415 2.881272,-1.31841 5.502853,-2.35679 5.825736,-2.30749 0.322884,0.0493 1.45298,-0.90879 2.511325,-2.12907 C 99.134081,108.69239 100,107.97648 100,108.32177 c 0,0.34528 2.7,-2.27452 6,-5.82177 3.3,-3.547253 6,-6.93746 6,-7.533793 0,-0.596332 0.46115,-0.799235 1.02478,-0.450894 0.56362,0.34834 0.90112,0.25324 0.75,-0.211335 C 113.35591,93.016353 117.17809,85 118.21089,85 c 0.49893,0 0.65237,-0.412238 0.34097,-0.916084 -0.31139,-0.503846 -0.0408,-2.191346 0.60135,-3.75 0.64214,-1.558654 1.07564,-3.396416 0.96332,-4.083916 -0.11231,-0.6875 0.23969,-1.25 0.78222,-1.25 0.54253,0 0.81491,-0.890537 0.6053,-1.978972 -0.20961,-1.088434 -0.0713,-2.170424 0.30742,-2.404421 1.60157,-0.989621 -0.13285,-23.079164 -1.89777,-24.169943 -0.52048,-0.321673 -0.67524,-1.023479 -0.34392,-1.559567 0.33132,-0.536089 0.19472,-1.517495 -0.30356,-2.180902 C 118.76794,42.042788 117.75717,39.5875 117.02007,37.25 116.28296,34.9125 115.33223,33 114.90733,33 c -0.42491,0 -1.03994,-0.842449 -1.36674,-1.872109 -0.3268,-1.02966 -3.05712,-4.415013 -6.06739,-7.523006 C 104.46294,20.496893 102,17.563125 102,17.085403 102,16.60768 100.8566,15.92984 99.459102,15.579091 97.922091,15.193326 97.192953,14.496813 97.61361,13.816175 98.000527,13.19013 97.864047,12.96599 97.305952,13.310911 96.754267,13.651872 95.353554,13.0464 94.193257,11.96542 93.032961,10.884439 91.389811,10 90.541813,10 89.693816,10 89,9.55 89,9 89,8.45 88.6625,8.0602014 88.25,8.133781 86.522588,8.4419076 81,6.6763569 81,5.815983 81,5.3022737 80.649598,5.0985265 80.221328,5.3632115 79.793059,5.6278966 76.746298,5.2817794 73.450748,4.5940624 67.473184,3.346661 58.492215,3.1744515 57.380746,4.285921 57.058231,4.6084361 55.689908,4.4524022 54.340029,3.939179 52.536452,3.2534604 52.076923,3.3154464 52.606896,4.1729617 53.090959,4.9561921 52.780947,5.1299191 51.664045,4.7013235 50.74882,4.3501189 50,4.4628916 50,4.9519295 c 0,0.489038 -1.4625,1.2370096 -3.25,1.6621592 -4.684029,1.1140771 -4.678302,1.112641 -5.5,1.3793324 -0.4125,0.1338815 -1.0875,0.1901315 -1.5,0.125 C 39.3375,8.0532895 39,8.4208724 39,8.935272 39,9.4496716 37.425,10.440071 35.5,11.13616 33.575,11.83225 32,12.761377 32,13.200888 32,13.6404 31.389286,14 30.642857,14 27.298966,14 11,33.628134 11,37.655036 11,38.394766 10.523442,39 9.940983,39 9.3585237,39 9.1600813,39.45 9.5,40 9.8399187,40.55 9.6149187,41 9,41 8.3850813,41 8.1600813,41.45 8.5,42 8.8399187,42.55 8.6812941,43 8.1475008,43 7.6137076,43 7.2801358,43.702929 7.4062301,44.562065 7.5323245,45.4212 7.0935355,48.754027 6.4311435,51.968346 5.1173285,58.343755 5.5078283,70.176477 7.2407294,76.5 9.019235,82.989938 9.1242538,83.419175 9.3825975,85.254322 9.5184285,86.2192 10.500411,87.71507 11.564781,88.57848 12.629152,89.441889 12.825,89.823764 12,89.42709 c -0.825,-0.396674 -0.4875,0.262485 0.75,1.464798 1.2375,1.202312 2.25,2.555547 2.25,3.007188 0,0.451641 1.544782,2.459111 3.432848,4.461045 1.888066,2.001929 3.238066,3.639879 3,3.639879 -0.768686,0 3.356269,3.81572 5.991702,5.54252 1.407053,0.92194 2.303693,2.08817 1.992534,2.59164 -0.311159,0.50347 -0.194795,0.83986 0.258586,0.74755 0.453382,-0.0923 2.314395,0.40017 4.135586,1.0944 2.200098,0.83868 3.126758,1.74304 2.761454,2.69501 -0.302391,0.78801 -0.118171,1.16599 0.409377,0.83995 0.527548,-0.32604 2.322393,0.11214 3.988545,0.97374 1.666153,0.8616 3.029368,1.34113 3.029368,1.06562 0,-0.27551 1.2375,-0.0173 2.75,0.57384 1.5125,0.59113 4.775,1.29072 7.25,1.55465 2.475,0.26393 4.909537,0.87618 5.410081,1.36056 0.500545,0.48437 1.374545,0.59363 1.942224,0.24278 0.567678,-0.35084 3.083141,-0.75983 5.589918,-0.90887 z M 34.331645,99.041133 c -11.176507,-1.281898 -12.4338,-3.38469 -2.747382,-4.594928 l 5.552738,-0.693769 -2.454339,-2.626218 C 28.833555,84.867495 26.137967,75.843532 25.31013,59.75 L 24.70572,48 57.35286,48 90,48 l 0,4 c 0,2.934883 0.410027,4 1.539838,4 3.04085,0 9.448512,4.076793 10.939552,6.960151 1.92686,3.726128 1.94746,9.313729 0.0479,12.987097 -1.65014,3.191014 -7.960573,6.624154 -14.02728,7.631427 -3.341568,0.55481 -4.51765,1.440014 -7.144743,5.377651 l -3.144742,4.71352 5.074932,0.915077 c 5.744044,1.035727 7.166661,2.844327 3.006363,3.822046 -4.473546,1.051336 -44.105688,1.535039 -51.960165,0.634164 z M 44.392611,82.75 c -2.20145,-8.102849 -3.294525,-18.754711 -2.462837,-24 l 0.753155,-4.75 -4.96995,0 -4.96995,0 0.449786,7.769793 C 33.70547,70.6256 36.690678,78.300235 41.954705,84.295631 43.743569,86.333034 45.344837,88 45.51308,88 45.681322,88 45.177111,85.6375 44.392611,82.75 Z M 93.95,74.448481 C 96.285775,72.161179 95.789044,66.057347 93.089216,63.871159 91.818285,62.842022 90.44239,62 90.031672,62 c -0.410717,0 -1.021095,2.624708 -1.356395,5.832684 -0.3353,3.207977 -0.923397,6.650331 -1.306882,7.649677 -0.608053,1.58456 -0.32443,1.725466 2.21718,1.10151 1.602934,-0.393514 3.566925,-1.35444 4.364425,-2.13539 z M 69.720539,41.75 c -0.788421,-2.209066 2.094129,-6.43426 5.48541,-8.040424 1.811728,-0.858062 5.403837,-2.090186 7.982465,-2.738052 5.23749,-1.315891 7.464407,-3.263721 7.970411,-6.971524 0.551195,-4.038949 3.290925,-3.10679 3.651077,1.242233 0.248787,3.00423 -0.21895,4.232358 -2.37178,6.227533 -1.474926,1.366915 -4.314382,2.780973 -6.309903,3.142351 -6.148654,1.113487 -10.785691,3.379347 -12.156118,5.940014 -1.408114,2.631083 -3.526979,3.22807 -4.251562,1.197869 z M 59,39.076923 c 0,-4.360557 4.963199,-8.780271 12.082799,-10.759696 7.344984,-2.042088 10.170712,-4.458976 9.294574,-7.949791 -0.562568,-2.241448 -0.357365,-2.501007 1.742482,-2.204042 1.883823,0.266415 2.446943,1.033822 2.70048,3.680146 0.417834,4.361198 -1.70751,6.633018 -8.187943,8.752244 -8.50665,2.781837 -12.256636,5.082848 -13.61056,8.351509 C 61.388539,42.890412 59,42.967398 59,39.076923 Z"
       style="fill:#fd9b42" />
    <path
       id="path4206"
       d="m 34.863428,98.989249 c -4.200114,-0.402056 -8.144955,-1.045208 -8.766312,-1.429228 -2.071907,-1.280509 -0.119995,-2.41325 5.332322,-3.094472 l 5.397914,-0.674425 -3.385925,-4.435802 C 28.492119,82.871376 25.951723,73.660377 25.27627,59.75 L 24.70572,48 57.35286,48 90,48 l 0,4 c 0,3.014299 0.397692,4 1.613845,4 2.834554,0 9.533865,4.38496 10.984195,7.18958 0.77108,1.491105 1.40196,4.586388 1.40196,6.878407 0,3.492416 -0.61578,4.783089 -3.80232,7.969626 -3.025059,3.02506 -5.069231,4.063996 -9.999999,5.08243 C 86.788956,83.824103 84,84.758822 84,85.197196 c 0,0.438373 -1.571147,2.536114 -3.491438,4.661646 l -3.491437,3.864604 5.164862,0.611702 c 4.754623,0.563115 7.837651,1.978547 6.72755,3.088649 -2.181711,2.18171 -37.055845,3.191843 -54.046109,1.565452 z M 44.392611,82.75 c -2.20145,-8.102849 -3.294525,-18.754711 -2.462837,-24 l 0.753155,-4.75 -4.96995,0 -4.96995,0 0.449786,7.769793 C 33.70547,70.6256 36.690678,78.300235 41.954705,84.295631 43.743569,86.333034 45.344837,88 45.51308,88 c 0.168242,0 -0.335969,-2.3625 -1.120469,-5.25 z m 49.335068,-8.079198 c 0.675223,-0.658673 1.513007,-2.624231 1.861742,-4.367907 0.513385,-2.566927 0.145634,-3.658749 -1.932224,-5.736607 C 92.245739,63.15483 90.68456,62 90.187911,62 c -0.496649,0 -1.177334,2.624708 -1.512634,5.832684 -0.3353,3.207977 -0.923397,6.650331 -1.306882,7.649677 -0.608053,1.58456 -0.32443,1.725466 2.21718,1.10151 1.602934,-0.393514 3.46688,-1.254395 4.142104,-1.913069 z M 69.720539,41.75 c -0.789764,-2.212828 2.09685,-6.435985 5.48541,-8.025232 C 77.017677,32.875061 80.525,31.647519 83,30.996896 88.388923,29.580267 91,27.463592 91,24.511679 91,21.81978 91.773197,20.975737 93.597766,21.67589 94.403542,21.985095 95,23.599233 95,25.470625 c 0,4.175191 -3.951313,8.250274 -8.862076,9.139671 -6.158136,1.115311 -10.794671,3.379812 -12.165823,5.941835 -1.408114,2.631083 -3.526979,3.22807 -4.251562,1.197869 z M 59,39.076923 c 0,-4.527276 4.844594,-8.648138 13.034348,-11.087152 6.959841,-2.072731 8.971634,-3.817597 8.639281,-7.493015 -0.287529,-3.179725 3.142499,-3.077542 3.944405,0.117507 1.170841,4.664999 -1.335224,7.522063 -9.140612,10.420841 -9.661378,3.58806 -11.023316,4.454374 -12.461592,7.926679 C 61.387562,42.892769 59,42.961224 59,39.076923 Z"
       style="fill:#c88e43" />
    <path
       id="path4204"
       d="M 35.794441,99.017342 C 23.189529,97.794758 21.675364,95.92 32.131375,94.481931 L 36.858399,93.831799 33.526436,89.46669 C 28.186129,82.470506 25.066308,69.921475 25.019809,55.25 L 25,49 l 32.611291,0 32.611291,0 -0.617389,3.290964 c -0.599318,3.194642 -0.489592,3.325145 3.74892,4.458774 2.883455,0.771207 5.470543,2.425463 7.617767,4.871012 2.96061,3.371952 3.20825,4.152777 2.76852,8.729201 -0.65909,6.859261 -5.096501,11.029248 -13.49478,12.681509 -4.709168,0.926472 -6.25761,1.718827 -7.513382,3.844679 -0.869967,1.472737 -2.561084,3.563981 -3.758037,4.647209 l -2.176278,1.969504 5.851038,1.003574 C 89.272498,95.632499 90.154262,97.033424 85,98.231695 79.785933,99.44387 45.788516,99.986694 35.794441,99.017342 Z M 43.855103,80 C 41.975046,72.726588 41.116845,57.237992 42.472367,55.044711 42.889539,54.369712 41.282232,54 37.930532,54 l -5.187503,0 0.449786,7.769793 c 0.513539,8.871079 3.498798,16.531507 8.791379,22.559424 1.805082,2.055875 3.400671,3.610341 3.545752,3.454369 C 45.675027,87.627614 44.921348,84.125 43.855103,80 Z M 93.545455,74.545455 C 94.895455,73.195455 96,70.925 96,69.5 96,67.023456 92.098195,62 90.174621,62 c -0.503959,0 -1.225196,2.730385 -1.602751,6.067523 -0.377554,3.337138 -0.933824,6.712138 -1.236155,7.5 -0.924925,2.410317 3.506773,1.680898 6.20974,-1.022068 z M 70.673101,42.339768 c -1.488617,-1.488617 -0.512976,-4.296717 2.321503,-6.681774 3.066462,-2.580257 3.47315,-2.755871 10.710394,-4.6249 C 88.756725,29.728478 91,27.697532 91,24.428571 91,22.666667 91.54902,22 93,22 c 1.566667,0 2,0.666667 2,3.076923 0,4.68317 -4.366698,8.442209 -11.535802,9.930509 -4.56824,0.948363 -6.613284,1.995692 -9.013447,4.61606 -1.707502,1.864158 -3.407444,3.086482 -3.77765,2.716276 z m -11.01511,-1.015111 c -3.254947,-3.254946 3.320722,-10.168653 12.60229,-13.250142 6.785032,-2.252636 8.735982,-4.009823 8.413348,-7.577759 -0.271783,-3.005586 3.130771,-3.124271 3.880937,-0.135371 1.38579,5.521429 -1.085104,7.864567 -12.397678,11.756663 C 66.374055,34.107634 63,36.471195 63,38.532543 c 0,1.576108 -2.48331,3.650814 -3.342009,2.792114 z"
       style="fill:#966e43" />
    <path
       id="path4202"
       d="M 38.5,99.013238 C 23.574355,97.876537 21.292049,96.057752 32.84284,94.50501 l 5.342839,-0.718223 -2.98504,-3.143394 C 29.005445,84.119552 26.465414,75.948697 25.352264,58.962823 L 24.699361,49 56.849681,49 89,49 l 0,3.292595 c 0,3.028401 0.341016,3.38394 4.25,4.431006 8.96134,2.400394 13.31592,11.861221 8.78415,19.084541 -2.249049,3.584814 -8.825395,7.134288 -13.28415,7.169896 -2.756667,0.02201 -3.218731,0.399447 -8.790195,7.180178 l -3.005814,3.658215 4.273005,0.664835 c 11.867106,1.846398 9.69086,3.19353 -7.246222,4.485532 C 59.461001,100.0744 52.552516,100.08344 38.5,99.013238 Z M 43.815076,78.998759 C 42.320676,72.71366 41.90134,68.220899 42.205145,61.75 L 42.615952,53 37.827028,53 c -4.15268,0 -4.865044,0.303285 -5.361866,2.282784 -0.800287,3.188595 1.282954,15.359363 3.478657,20.323114 1.627468,3.679162 8.899683,12.883934 9.614327,12.16929 0.152717,-0.152718 -0.631664,-4.102111 -1.74307,-8.776429 z M 92.315741,75.850296 C 95.23399,74.31425 95.966457,73.059347 95.984687,69.564451 96.000284,66.574535 92.655962,62 90.454517,62 c -0.690208,0 -1.486718,2.222408 -1.881597,5.25 -0.376608,2.8875 -0.933366,6.2625 -1.237239,7.5 -0.632493,2.575776 1.346283,3.012967 4.98006,1.100296 z M 70.726735,42.393402 c -3.040874,-3.040874 1.918796,-7.908379 10.710059,-10.511035 8.332894,-2.466956 9.344352,-3.162311 9.753845,-6.705547 0.406331,-3.515875 3.207941,-3.551836 3.614245,-0.04639 0.498283,4.299002 -3.330533,7.631763 -11.269654,9.809578 -5.29436,1.452319 -7.578393,2.662377 -9.523265,5.045333 -1.407172,1.724138 -2.885526,2.807766 -3.28523,2.408062 z M 59.683333,41.35 C 56.595917,38.262583 63.074756,30.946185 70.973229,28.600591 78.654089,26.31962 81,24.535956 81,20.976947 c 0,-3.658784 2.512844,-4.054067 3.396262,-0.53425 1.093139,4.355414 -1.200822,7.349079 -7.3003,9.527037 -8.493907,3.032944 -12.429561,5.291165 -13.706259,7.86445 -1.531881,3.087628 -2.867555,4.354631 -3.70637,3.515816 z"
       style="fill:#434343" />
  </g>
</svg>
